<svg xmlns="http://www.w3.org/2000/svg" width="307.43" height="218.323" viewBox="0 0 307.43 218.323">
  <g id="Grupo_14" data-name="Grupo 14" transform="translate(1.222 123.697) rotate(-36)">
    <path id="Trazado_113" data-name="Trazado 113" d="M396.458,401.43c45.285,37.291,104.157,53.418,161.871,63.932,12.673,2.309,25.436,4.407,37.713,8.307a133.655,133.655,0,0,1,39.073,19.989" transform="translate(-364.392 -355.515)" fill="none" stroke="#a5aa94" stroke-linecap="round" stroke-linejoin="round" stroke-width="1.75"/>
    <path id="Trazado_114" data-name="Trazado 114" d="M404.675,413.422a56.538,56.538,0,0,1-32.143-46.252c9.72,4.093,19.929,8.623,26.012,17.238,5.984,8.475,6.913,19.4,7.644,29.752q-.2-.694-.4-1.387" transform="translate(-372.532 -367.17)" fill="none" stroke="#a5aa94" stroke-linecap="round" stroke-linejoin="round" stroke-width="1.75"/>
    <path id="Trazado_115" data-name="Trazado 115" d="M430.216,435.622A53.8,53.8,0,0,1,409.969,402.5c-1.663-9.393-.777-19.054-1.815-28.537l12.491,11.69a47.678,47.678,0,0,1,5.6,5.878c2.97,3.924,4.645,8.651,6.276,13.295a19.009,19.009,0,0,1,1.352,5.641,23.693,23.693,0,0,1-1.291,6.761,48.029,48.029,0,0,0-1.228,18.622" transform="translate(-360.414 -364.859)" fill="none" stroke="#a5aa94" stroke-linecap="round" stroke-linejoin="round" stroke-width="1.75"/>
    <path id="Trazado_116" data-name="Trazado 116" d="M464.485,445.847c-6.915-9.45-18.523-14.884-24.569-24.912-4.35-7.216-5.3-15.981-8.845-23.622q7.028,3.249,13.793,7.025c5.268,2.942,10.593,6.3,13.8,11.412,5.5,8.784,3.446,20.437,7.536,29.961l-1.283-.781" transform="translate(-352.617 -356.915)" fill="none" stroke="#a5aa94" stroke-linecap="round" stroke-linejoin="round" stroke-width="1.75"/>
    <path id="Trazado_117" data-name="Trazado 117" d="M447.153,424.355a78.464,78.464,0,0,0-68.421,2.1c9.926,1.837,18.91,7.833,28.988,8.42,6.6.383,13.151-1.6,19.753-1.308a19.55,19.55,0,0,0,5.228-.076,14.612,14.612,0,0,0,4.99-2.627l8.758-6.178" transform="translate(-370.423 -350.044)" fill="none" stroke="#a5aa94" stroke-linecap="round" stroke-linejoin="round" stroke-width="1.75"/>
    <path id="Trazado_118" data-name="Trazado 118" d="M478.856,424.219c15.4,13.724,31.617,27.891,51.587,33.072" transform="translate(-336.361 -347.762)" fill="none" stroke="#a5aa94" stroke-linecap="round" stroke-linejoin="round" stroke-width="1.75"/>
    <path id="Trazado_119" data-name="Trazado 119" d="M488.573,436.591c-4.613.2-8.888-2.223-12.824-4.634-5.057-3.1-10.173-6.424-13.6-11.259-2.947-4.153-4.441-9.135-5.889-14.018q-2.048-6.907-4.094-13.817c19.074,5.225,34.076,22.9,36.129,42.574" transform="translate(-345.441 -358.43)" fill="none" stroke="#a5aa94" stroke-linecap="round" stroke-linejoin="round" stroke-width="1.75"/>
    <path id="Trazado_120" data-name="Trazado 120" d="M474.613,414.712a31.016,31.016,0,0,1,2.935-21.809c2.908,4.864,7.5,8.66,9.81,13.833a18.213,18.213,0,0,1,1.316,10.447,36.185,36.185,0,0,1-2.907,8.379q-2.479,5.613-4.956,11.225" transform="translate(-338.08 -358.416)" fill="none" stroke="#a5aa94" stroke-linecap="round" stroke-linejoin="round" stroke-width="1.75"/>
    <path id="Trazado_121" data-name="Trazado 121" d="M491.132,420.4A66.172,66.172,0,0,0,516.3,453.973a12.982,12.982,0,0,0,5.854,2.6" transform="translate(-332.185 -349.061)" fill="none" stroke="#a5aa94" stroke-linecap="round" stroke-linejoin="round" stroke-width="1.75"/>
    <path id="Trazado_122" data-name="Trazado 122" d="M541.025,464.959c-11-1.34-20.8-8.281-27.371-17.2s-10.22-19.683-12.492-30.53a25.547,25.547,0,0,1-.65-4.586,2.627,2.627,0,0,1,.343-1.615c.611-.851,1.886-.784,2.907-.547,7.5,1.752,13.382,7.754,17.185,14.454s5.924,14.2,8.73,21.371,6.511,14.313,12.6,19.039" transform="translate(-328.995 -352.489)" fill="none" stroke="#a5aa94" stroke-linecap="round" stroke-linejoin="round" stroke-width="1.75"/>
    <path id="Trazado_123" data-name="Trazado 123" d="M571.289,479.255A103.478,103.478,0,0,1,539.852,456.5,73.03,73.03,0,0,1,528.2,440.6a77.366,77.366,0,0,1-7.171-22.029,122.534,122.534,0,0,1-1.928-17.014c10.212,6.445,22.333,10.2,30.788,18.822,7.807,7.959,11.447,19.046,14.122,29.869s4.717,22.023,10.195,31.735" transform="translate(-322.671 -355.47)" fill="none" stroke="#a5aa94" stroke-linecap="round" stroke-linejoin="round" stroke-width="1.75"/>
    <path id="Trazado_124" data-name="Trazado 124" d="M523.918,408.3c5.188,6.141,8.06,13.84,11.472,21.119a142.2,142.2,0,0,0,35.3,46.763" transform="translate(-321.031 -353.176)" fill="none" stroke="#a5aa94" stroke-linecap="round" stroke-linejoin="round" stroke-width="1.75"/>
    <path id="Trazado_125" data-name="Trazado 125" d="M467.553,434.231a53.445,53.445,0,0,0-40.3,9.141" transform="translate(-353.915 -344.634)" fill="none" stroke="#a5aa94" stroke-linecap="round" stroke-linejoin="round" stroke-width="1.75"/>
    <path id="Trazado_126" data-name="Trazado 126" d="M430.912,440.971a24.853,24.853,0,0,0-8.844,23.474c3.239-.768,5.668-3.372,7.891-5.849a30.553,30.553,0,0,0,5.613-7.76,55.877,55.877,0,0,0,2.187-7.506c.84-2.965-.566-3.955,1.049-6.579" transform="translate(-355.807 -343.499)" fill="none" stroke="#a5aa94" stroke-linecap="round" stroke-linejoin="round" stroke-width="1.75"/>
    <path id="Trazado_127" data-name="Trazado 127" d="M446.463,436.079c-5.695.641-11.63,1.253-17.012-.71-2.095-.765-4.05-1.9-6.2-2.5a15.643,15.643,0,0,1,12.394-2.8,20.75,20.75,0,0,1,11.169,6.4" transform="translate(-355.277 -345.866)" fill="none" stroke="#a5aa94" stroke-linecap="round" stroke-linejoin="round" stroke-width="1.75"/>
    <path id="Trazado_128" data-name="Trazado 128" d="M487,439.189a9.333,9.333,0,0,0-5.136-.276c-3.636.488-7.271.977-10.886,1.593-7.6,1.3-15.246,3.215-21.776,7.31-6.861,4.3-12.07,10.728-17.145,17.035,7.1,1.646,14.541,3.29,21.6,1.458,2.376-.617,4.636-1.614,6.988-2.319,2.93-.878,6.046-1.317,8.7-2.847A20.021,20.021,0,0,0,474.6,456.3a63.808,63.808,0,0,0,6.374-9.353c1.635-2.926,3.245-6.19,6.267-7.64" transform="translate(-352.28 -342.838)" fill="none" stroke="#a5aa94" stroke-linecap="round" stroke-linejoin="round" stroke-width="1.75"/>
    <path id="Trazado_129" data-name="Trazado 129" d="M469.414,469.216c3.617-.685,6.579-3.176,9.468-5.459a127.823,127.823,0,0,1,31.361-18.212" transform="translate(-339.573 -340.507)" fill="none" stroke="#a5aa94" stroke-linecap="round" stroke-linejoin="round" stroke-width="1.75"/>
    <path id="Trazado_130" data-name="Trazado 130" d="M530.747,448.131c-16.6,3.3-33.128,9.395-45.569,20.863a108.465,108.465,0,0,0-10.5,11.566q-3.625,4.465-7.1,9.046c10.254-4.109,22.037-2.646,32.411-6.442a39.856,39.856,0,0,0,15.9-11.2,62.529,62.529,0,0,0,10.258-16.66c1.079-2.483,2.164-5.175,4.425-6.665" transform="translate(-340.198 -339.627)" fill="none" stroke="#a5aa94" stroke-linecap="round" stroke-linejoin="round" stroke-width="1.75"/>
    <path id="Trazado_131" data-name="Trazado 131" d="M544.2,452.757A89.549,89.549,0,0,1,510.175,480.1" transform="translate(-325.706 -338.053)" fill="none" stroke="#a5aa94" stroke-linecap="round" stroke-linejoin="round" stroke-width="1.75"/>
    <path id="Trazado_132" data-name="Trazado 132" d="M524.041,473.088a53.843,53.843,0,0,0-53.091,23.129c7.135-1.514,14.537-.737,21.818-1.193,6.976-.436,13.988-2.063,19.981-5.66s10.886-9.313,12.6-16.09" transform="translate(-339.05 -331.359)" fill="none" stroke="#a5aa94" stroke-linecap="round" stroke-linejoin="round" stroke-width="1.75"/>
    <path id="Trazado_133" data-name="Trazado 133" d="M468.992,486.894c7.246-4.92,15.072-8.911,22.608-13.374,8.079-4.786,15.821-10.115,23.555-15.438a111.636,111.636,0,0,0,12.571-9.557" transform="translate(-339.716 -339.493)" fill="none" stroke="#a5aa94" stroke-linecap="round" stroke-linejoin="round" stroke-width="1.75"/>
    <path id="Trazado_134" data-name="Trazado 134" d="M508.546,419.3c4.362,7.263,7.578,15.151,11.583,22.616s8.969,14.67,15.932,19.5" transform="translate(-326.26 -349.435)" fill="none" stroke="#a5aa94" stroke-linecap="round" stroke-linejoin="round" stroke-width="1.75"/>
    <path id="Trazado_135" data-name="Trazado 135" d="M572.727,460.231c-3.734-.986-7.71.11-11.232,1.694-11.183,5.03-19.508,14.659-27.453,24q-9.41,11.057-18.818,22.115c4.763-.543,9.588.035,14.372-.285,11.685-.783,22.605-7.024,30.464-15.707s12.394-18.586,15.458-29.89" transform="translate(-323.988 -335.638)" fill="none" stroke="#a5aa94" stroke-linecap="round" stroke-linejoin="round" stroke-width="1.75"/>
    <path id="Trazado_136" data-name="Trazado 136" d="M518.021,506.141c9.078-7.253,20.126-11.676,29.375-18.709,9.631-7.324,16.958-17.195,24.148-26.925" transform="translate(-323.037 -335.417)" fill="none" stroke="#a5aa94" stroke-linecap="round" stroke-linejoin="round" stroke-width="1.75"/>
    <path id="Trazado_137" data-name="Trazado 137" d="M531.539,463.109c-6.98,8.106-14.021,16.542-17.483,26.662a18.053,18.053,0,0,0-1.2,6.866c.058.934.513,2.107,1.447,2.061a1.754,1.754,0,0,0,.867-.358c2.757-1.856,4.082-5.2,4.941-8.407a82.143,82.143,0,0,0,1.823-9.328,23.982,23.982,0,0,1,1.414-6.106,22.447,22.447,0,0,1,2.969-4.612q3.09-4.035,6.189-8.063-.171.38-.34.761" transform="translate(-324.8 -334.969)" fill="none" stroke="#a5aa94" stroke-linecap="round" stroke-linejoin="round" stroke-width="1.75"/>
    <path id="Trazado_138" data-name="Trazado 138" d="M490.61,454.448c-4.707-.444-9.317,1.281-13.729,2.977-2.313.889-4.713,1.835-6.389,3.661-1.229,1.34-1.971,3.057-3.12,4.466a43.851,43.851,0,0,1-3.423,3.306,17.561,17.561,0,0,0-3.915,5.815c.775,1.665,3.17,1.49,4.94,1.009,5.752-1.565,11.471-3.631,16.277-7.157s8.647-8.686,9.538-14.579" transform="translate(-342.764 -337.649)" fill="none" stroke="#a5aa94" stroke-linecap="round" stroke-linejoin="round" stroke-width="1.75"/>
    <path id="Trazado_139" data-name="Trazado 139" d="M502.314,442.721c-4.38-1.332-8.969-3.1-11.6-6.844-3.05-4.333-2.69-10.128-2.028-15.385q.484-3.834,1.094-7.651a1.88,1.88,0,0,1,.339-.953,1.445,1.445,0,0,1,1.011-.424,4.34,4.34,0,0,1,3.5,1.819,28.059,28.059,0,0,1,2.1,3.522c1.118,1.9,2.628,3.554,3.672,5.5a24.954,24.954,0,0,1,2.243,7.642,44.6,44.6,0,0,1,.834,7.973,25.246,25.246,0,0,1-.525,4.9" transform="translate(-333.173 -352.104)" fill="none" stroke="#a5aa94" stroke-linecap="round" stroke-linejoin="round" stroke-width="1.75"/>
    <path id="Trazado_140" data-name="Trazado 140" d="M456.113,397.3c13.335,8.319,18.113,25.639,30.642,35.127a63.374,63.374,0,0,0,.626-20.091,126.612,126.612,0,0,0-3.125-14.8" transform="translate(-344.098 -356.921)" fill="none" stroke="#a5aa94" stroke-linecap="round" stroke-linejoin="round" stroke-width="1.75"/>
    <path id="Trazado_141" data-name="Trazado 141" d="M433.916,464.535c6.047-1.3,11.424-4.66,17.187-6.9,4.575-1.782,9.415-2.872,13.875-4.925,6.852-3.154,12.475-8.414,17.967-13.586" transform="translate(-351.649 -342.693)" fill="none" stroke="#a5aa94" stroke-linecap="round" stroke-linejoin="round" stroke-width="1.75"/>
    <path id="Trazado_142" data-name="Trazado 142" d="M432.724,398.924c4.4,6.173,10.467,10.944,15.372,16.722,6.9,8.134,11.321,18.038,15.644,27.793" transform="translate(-352.055 -356.367)" fill="none" stroke="#a5aa94" stroke-linecap="round" stroke-linejoin="round" stroke-width="1.75"/>
    <path id="Trazado_143" data-name="Trazado 143" d="M422.525,463.184a204.365,204.365,0,0,1,15.466-25.726" transform="translate(-355.524 -343.258)" fill="none" stroke="#a5aa94" stroke-linecap="round" stroke-linejoin="round" stroke-width="1.75"/>
    <path id="Trazado_144" data-name="Trazado 144" d="M425.485,432.118a38.741,38.741,0,0,1,9.708.37c3.137.655,6.106,2.089,9.3,2.4" transform="translate(-354.518 -345.118)" fill="none" stroke="#a5aa94" stroke-linecap="round" stroke-linejoin="round" stroke-width="1.75"/>
    <path id="Trazado_145" data-name="Trazado 145" d="M409.184,376.079a79.75,79.75,0,0,1,6.673,16.21c1.571,5.83,2.164,11.888,3.728,17.719,2.293,8.544,6.606,16.384,10.88,24.129" transform="translate(-360.063 -364.139)" fill="none" stroke="#a5aa94" stroke-linecap="round" stroke-linejoin="round" stroke-width="1.75"/>
    <path id="Trazado_146" data-name="Trazado 146" d="M381.762,424.456c5.96-1.69,12.263-1.571,18.457-1.438l15.454.331c2.675.058,5.351.115,8.028.126q10.4.044,20.772-.838" transform="translate(-369.392 -348.3)" fill="none" stroke="#a5aa94" stroke-linecap="round" stroke-linejoin="round" stroke-width="1.75"/>
    <path id="Trazado_147" data-name="Trazado 147" d="M373.429,367.938c3.294,5.819,8.249,10.5,12.239,15.864,7.06,9.5,11.188,21.256,19.917,29.249-.3-.206-.6-.413-.9-.621" transform="translate(-372.227 -366.909)" fill="none" stroke="#a5aa94" stroke-linecap="round" stroke-linejoin="round" stroke-width="1.75"/>
    <path id="Trazado_148" data-name="Trazado 148" d="M473.129,494.788q2.8-1.564,5.6-3.125a49.015,49.015,0,0,1,7.508-3.651c3.883-1.371,8.036-1.745,12.044-2.684,9-2.105,17.05-6.993,24.934-11.808" transform="translate(-338.309 -330.99)" fill="none" stroke="#a5aa94" stroke-linecap="round" stroke-linejoin="round" stroke-width="1.75"/>
  </g>
</svg>
