<svg xmlns="http://www.w3.org/2000/svg" width="38.061" height="38.061" viewBox="0 0 38.061 38.061">
  <g id="Grupo_17" data-name="Grupo 17" transform="translate(-91.287 -182.43)">
    <path id="Trazado_188" data-name="Trazado 188" d="M110.318,220.491h0a19.03,19.03,0,0,1-19.031-19.03h0a19.03,19.03,0,0,1,19.031-19.031h0a19.03,19.03,0,0,1,19.03,19.031h0A19.03,19.03,0,0,1,110.318,220.491Z" fill="#222221"/>
    <g id="Grupo_16" data-name="Grupo 16">
      <g id="Grupo_15" data-name="Grupo 15">
        <rect id="Rectángulo_37" data-name="Rectángulo 37" width="3.939" height="12.724" transform="translate(101.688 197.219)" fill="#fff"/>
        <path id="Trazado_189" data-name="Trazado 189" d="M103.639,195.552a2.348,2.348,0,1,0-2.329-2.348A2.339,2.339,0,0,0,103.639,195.552Z" fill="#fff"/>
      </g>
      <path id="Trazado_190" data-name="Trazado 190" d="M111.923,203.263c0-1.788.823-2.854,2.4-2.854,1.448,0,2.144,1.023,2.144,2.854v6.679h3.92v-8.056c0-3.408-1.932-5.056-4.63-5.056a4.435,4.435,0,0,0-3.834,2.1v-1.713h-3.778v12.723h3.778Z" fill="#fff"/>
    </g>
  </g>
</svg>
