<svg xmlns="http://www.w3.org/2000/svg" width="38.061" height="38.061" viewBox="0 0 38.061 38.061">
  <g id="Grupo_20" data-name="Grupo 20" transform="translate(-146.391 -182.43)">
    <path id="Rect치ngulo_38" data-name="Rect치ngulo 38" d="M19.031,0h0a19.03,19.03,0,0,1,19.03,19.03v0a19.03,19.03,0,0,1-19.03,19.03h0A19.03,19.03,0,0,1,0,19.031v0A19.031,19.031,0,0,1,19.031,0Z" transform="translate(146.391 182.43)" fill="#222221"/>
    <g id="Grupo_19" data-name="Grupo 19">
      <path id="Trazado_191" data-name="Trazado 191" d="M162.581,207.775a3.667,3.667,0,0,0,2.449-1.717,3.894,3.894,0,0,0,.593-2.125,3.532,3.532,0,0,0-.518-1.952,2.971,2.971,0,0,0-1.54-1.176,3.2,3.2,0,0,0,1.017-.759,2.97,2.97,0,0,0,.617-1.962,3.392,3.392,0,0,0-.612-2.034,4.087,4.087,0,0,0-3.453-1.419h-6.441v13.325H160.7A9.2,9.2,0,0,0,162.581,207.775Zm-5.23-10.83h2.9a5.011,5.011,0,0,1,1.575.208,1.194,1.194,0,0,1,.716,1.229,1.258,1.258,0,0,1-.542,1.171,2.674,2.674,0,0,1-1.409.33h-3.239Zm0,8.7V202.09h3.28a3.344,3.344,0,0,1,1.332.225,1.432,1.432,0,0,1,.849,1.428,1.679,1.679,0,0,1-.876,1.664,3.141,3.141,0,0,1-1.349.235Z" fill="#fff"/>
      <g id="Grupo_18" data-name="Grupo 18">
        <path id="Trazado_192" data-name="Trazado 192" d="M167.88,207.078a5.368,5.368,0,0,0,3.471,1.213,4.785,4.785,0,0,0,3.707-1.438,3.214,3.214,0,0,0,.955-1.781h-2.63a2.155,2.155,0,0,1-.531.678,2.181,2.181,0,0,1-1.43.452,2.606,2.606,0,0,1-1.42-.371,2.361,2.361,0,0,1-1.031-2.079h7.177a12.733,12.733,0,0,0-.085-1.956,4.845,4.845,0,0,0-.785-2.036,3.991,3.991,0,0,0-1.7-1.458,5.6,5.6,0,0,0-2.317-.462,4.751,4.751,0,0,0-3.523,1.367,5.332,5.332,0,0,0-1.357,3.926A4.777,4.777,0,0,0,167.88,207.078Zm1.841-6.551a2.046,2.046,0,0,1,1.537-.562,2.265,2.265,0,0,1,1.529.53,2.148,2.148,0,0,1,.686,1.557h-4.439A2.685,2.685,0,0,1,169.721,200.527Z" fill="#fff"/>
        <rect id="Rect치ngulo_39" data-name="Rect치ngulo 39" width="5.791" height="1.345" transform="translate(168.194 195.397)" fill="#fff"/>
      </g>
    </g>
  </g>
</svg>
